# xmcd CD database file
#
# Track frame offsets:
#	150
#	20497
#	43503
#	64953
#	90842
#	115957
#	131745
#	152495
#	177754
#	201604
#	229203
#	250748
#
# Disc length: 3663 seconds
#
# Revision: 0
# Processed by: cddbd v1.4PL0 Copyright (c) Steve Scherf et al.
# Submitted via: CDex 1.50beta10
#
DISCID=9e0e4d0c
DTITLE=Various Artist - Night Jazz Fantasy Vol. 1
DYEAR=1900
DGENRE=Jazz
TTITLE0=Patti Cake - thom Rotella Band
TTITLE1=Sola - The Fantasy Band
TTITLE2=Follow Me - Thursday Diva
TTITLE3=The Grey ghost - Thursday Diva
TTITLE4=Chitlins Parmigiana - Vivino Brothers
TTITLE5=Someday - Film &The BB's
TTITLE6=Friends for life - Mann Brotherss Band
TTITLE7=Shape of my heart - Chuck Loeb
TTITLE8=Rain - Charles and Friedman
TTITLE9=En El Rio - Chuck Loeb
TTITLE10=Save the best for last - Warren Bernhardt
TTITLE11=My foolish Heart - Michael Franks With Bob Mintzer Big Band
EXTD=
EXTT0=
EXTT1=
EXTT2=
EXTT3=
EXTT4=
EXTT5=
EXTT6=
EXTT7=
EXTT8=
EXTT9=
EXTT10=
EXTT11=
PLAYORDER=
